# xmcd
#
# Track frame offsets:
#	150
#	16138
#	31168
#	51742
#	65759
#	82066
#	98675
#	115938
#	131740
#	134697
#	149191
#	159813
#	180756
#	192763
#	209991
#	222197
#
# Disc length: 3332 seconds
#
# Revision: 1
# Processed by: cddbd v1.5.2PL0 Copyright (c) Steve Scherf et al.
# Submitted via: audiograbber 1.83.01
#
DISCID=f40d0210
DTITLE=Gerard Cox - De laaie lichter
DYEAR=2001
DGENRE=Other
TTITLE0=Romeo en Julio
TTITLE1=Airport Song
TTITLE2=Fanasieën van een Vader
TTITLE3=Tegen de tijd dat 'k bij parijs ben
TTITLE4=jij en ik tegen de rest
TTITLE5=De Laaielichter
TTITLE6=Een lekker hollands liedje
TTITLE7=Effe eentje tussendoor
TTITLE8=Coen
TTITLE9=bejaardenhuis
TTITLE10=Wat jammer toch dat alles altijd overgaat
TTITLE11=Het koele water
TTITLE12=De commensaal
TTITLE13=Onze Linda
TTITLE14=Allemaal zijn we kapitalisten
TTITLE15=Een brief van een oude moeder
EXTD=
EXTT0=
EXTT1=
EXTT2=
EXTT3=
EXTT4=
EXTT5=
EXTT6=
EXTT7=
EXTT8=
EXTT9=
EXTT10=
EXTT11=
EXTT12=
EXTT13=
EXTT14=
EXTT15=
PLAYORDER=
